<svg xmlns="http://www.w3.org/2000/svg" xmlns:xlink="http://www.w3.org/1999/xlink" buffered-rendering="static" width="50px" height="100px" viewBox="0,0,10,20">
<desc>
This file was created by http://www.h2.dion.ne.jp/~defghi/img2svg3/dot2svg3.htm at Sat Jan 16 2021 17:37:08 GMT+0900 (日本標準時)
path count:11
</desc>
<defs>
<g id="dots">
<path d="m0,0h10v20h-2v-6h1v-6h-1v-6h-6v6h-1v6h1v6h-2z" opacity="0"/>
<path d="m2,2h6v1h-4v1h-1v1h-1zm1,12h5v4h-2v-3h-1v3h-2z" fill="#733e00"/>
<path d="m4,3h4v1h-4v1h2v2h1v-2h1v3h-4v-1h-1v-3h1zm-2,9h1v2h-1zm6,0h1v2h-1z" fill="#ecbd73"/>
<path d="m4,4h1v1h-1zm2,0h1v1h-1z" fill="#fff"/>
<path d="m5,4h1v1h-1zm2,0h1v1h-1zm-5,14h1v1h2v-1h1v1h2v1h-6z"/>
<path d="m2,5h1v2h1v1h-2zm4,0h1v2h-1zm-5,7h1v2h-1z" fill="#c88339"/>
<path d="m1,8h1v4h-1z" fill="#261904"/>
<path d="m2,8h1v4h-1zm6,0h1v4h-1z" fill="#555a00"/>
<path d="m3,8h5v6h-5z" fill="#696e13"/>
<path d="m2,14h1v4h-1zm3,1h1v3h-1z" fill="#3c2202"/>
<path d="m3,18h2v1h-2zm3,0h2v1h-2z" fill="#392619"/>
</g>
</defs>
<use xlink:href="#dots"/>
</svg>