<svg xmlns="http://www.w3.org/2000/svg" xmlns:xlink="http://www.w3.org/1999/xlink" buffered-rendering="static" width="50px" height="50px" viewBox="0,0,10,10">
<desc>
This file was created by http://www.h2.dion.ne.jp/~defghi/img2svg3/dot2svg3.htm at Sat Jan 16 2021 17:38:01 GMT+0900 (日本標準時)
path count:3
</desc>
<defs>
<g id="dots">
<path d="m0,0h1v1h-1zm5,0h1v1h-1zm-3,3h2v1h1v1h-1v-1h-2zm6,1h1v1h-1zm-8,2h1v2h-1zm5,0h1v2h-1zm4,1h1v1h-1zm-6,2h1v1h-1zm5,0h1v1h-1z" fill="#643300"/>
<path d="m1,0h4v1h1v-1h3v1h1v3h-2v1h1v1h1v1h-1v1h1v1h-2v1h-2v-1h-1v1h-1v-1h-1v1h-2v-1h-1v-1h1v-1h1v-1h-2v-2h1v-1h-1v-2h1zm1,1h-1v1h2v-1zm5,0h-1v1h1zm2,1h-1v1h1zm-6,1h-1v1h2v-1zm2,1h-1v1h2v-1zm0,2h-1v1h1v1h1v-2zm3,1h-1v1h1z" fill="#6f4800"/>
<path d="m9,0h1v1h-1zm-8,1h2v1h-2zm5,0h1v1h-1zm2,1h1v1h-1zm-8,1h1v1h-1zm5,1h1v1h-1zm4,0h1v2h-1zm-8,2h1v1h-1zm3,0h1v1h-1zm3,1h1v1h-1zm-7,2h1v1h-1zm5,0h1v1h-1zm4,0h1v1h-1z" fill="#55421b"/>
</g>
</defs>
<use xlink:href="#dots"/>
</svg>